<svg width="123" height="82" fill="none" xmlns="http://www.w3.org/2000/svg"><path d="M16.84 42.09a54.068 54.068 0 01-.693-.654l-.127-.073c-.106-.06-.22-.155-.356-.262a2.328 2.328 0 01-.332-.304c-.093-.082-.111-.149-.075-.212.058-.052.05-.085-.014-.122-.064-.036-.14-.052-.257-.092-.118-.04-.27-.07-.417-.156a.943.943 0 01-.408-.32c-.06-.09-.208-.176-.377-.274a2.508 2.508 0 01-.695-.457c-.093-.082-.165-.152-.25-.201-.063-.037-.115-.095-.17-.098a1.614 1.614 0 01-.262-.18c-.114-.094-.247-.255-.452-.486a2.335 2.335 0 00-.28-.247c-.136-.106-.263-.18-.399-.286a1.386 1.386 0 00-.362-.153c-.097-.028-.143.002-.116.102.014.121-.043.173-.194.142-.143.002-.315-.041-.539-.142-.202-.089-.402-.232-.622-.387-.2-.144-.34-.338-.461-.52a1.876 1.876 0 00-.195-.395c-.027-.1-.078-.158-.1-.17-.03-.045-.03-.045-.042-.024 0 0-.012.02-.003.054-.012.021-.015.076-.027.097.008.033-.004.054-.05.085-.012.02-.033.009-.087.005-.29-.083-.641-.257-1.03-.51-.369-.24-.604-.517-.663-.805-.048-.113-.15-.228-.295-.368a1.506 1.506 0 00-.462-.323c-.181-.077-.27-.071-.352.022-.082.094-.279.093-.59-.002a10.488 10.488 0 01-.995-.377c-.426-.19-.746-.318-.973-.365-.66-.127-1.144-.265-1.443-.382-.3-.116-.507-.293-.637-.508a5.276 5.276 0 01-.298-1.046c-.009-.034.037-.064.158-.078.13.018.273.016.415.014.163.01.306.007.448.005.11.006.155-.024.158-.078-.01-.034-.081-.104-.208-.177s-.275-.159-.456-.235l-.508-.293c-.17-.098-.241-.168-.272-.213-.262-.913-.263-1.449-.01-1.642.252-.192.612-.182 1.114.024.468.213.979.452 1.486.745l.381.22c1.26.699 2.532 1.377 3.816 2.034l.084.048c.106.061.224.101.35.175.14.052.267.125.406.177.139.052.223.1.278.104.003-.054-.024-.154-.132-.358a6.747 6.747 0 00-.375-.668c-.78-1.239-1.238-2.349-1.43-3.334-.205-.964-.066-2.18.392-3.608.352-.952.731-1.805 1.189-2.499.47-.716.984-1.461 1.587-2.213.082-.093.131-.178.201-.25-1.092-2.21-1.64-4.19-1.678-5.93-.06-1.754.561-3.708 1.81-5.919l.036-.063c.248-.478.559-.918.933-1.323a1.14 1.14 0 00.173-.153c.058-.051.095-.115.131-.178a9.447 9.447 0 011.876-1.736c.207-.163.426-.347.632-.51a9.705 9.705 0 011.737-1.054 13.67 13.67 0 001.543-.914c.045-.03.124-.07.194-.141.091-.06.182-.12.295-.169a.415.415 0 01.2-.053c.054.003.23-.008.53-.089.3-.08.646-.19 1.058-.32l.234-.062c.245-.083.512-.155.767-.205.288-.06.54-.055.778-.03.043.024.076.015.11.006a.429.429 0 00.145-.056c.079-.04.191-.087.337-.144.133-.036.363-.044.636-.028.293.029.59.003.9-.044.242-.03.538-.055.878-.057 5.55.104 10.162 2.174 13.865 6.258.286.334.521.61.726.842.193.252.317.38.338.392.033-.01.145.14.346.425.18.274.4.626.662 1.003.33.5.634 1.099.955 1.763.288.674.524 1.29.71 1.848.173.579.237.954.203 1.16-.049.085-.05.282-.036.6.014.318.037.67.068 1.054.044.363.054.736.068 1.054.002.34-.011.557-.051.675-.04.118-.059.248-.09.4.002.142-.016.272.01.372.014.318-.024.775-.093 1.383a8.769 8.769 0 01-.42 1.703c-.175.548-.416.916-.698 1.063-.17.1-.252.193-.271.323-.019.13.017.264.04.418a.944.944 0 01.022.548c-.034.206-.232.402-.593.588-.282.147-.455.3-.51.495a1.762 1.762 0 00-.055.532c.015.121.009.23.002.34a.695.695 0 01-.159.274l-.058.051c-.07.073-.152.166-.234.26a.804.804 0 00-.17.296c-.016.075-.086.148-.168.241a.957.957 0 01-.286.202c-.112.048-.228.15-.368.295-.118.157-.237.314-.302.474-.097.17-.195.338-.301.474-.107.136-.177.209-.256.247-.058.052-.103.082-.14.145a.134.134 0 00.002.143c-.003.054-.015.075-.06.105-.046.03-.1.027-.21.02-.142.003-.263.017-.345.111a1.824 1.824 0 00-.28.29c-.094.114-.177.208-.283.343-.371.35-.879.79-1.544 1.308-.666.518-1.243.833-1.718.925-.11-.007-.176.011-.234.062-.058.052-.052.14.008.23.06.092.208.177.432.278.181.077.384.165.577.22.611.212.95.408 1.049.578.047.112-.01.163-.165.187-.154.023-.381-.023-.63-.082-.269-.07-.556-.208-.843-.346-.405-.177-.816-.246-1.225-.172a5.368 5.368 0 00-1.186.443c-.104.081-.15.111-.12.157.043.025.107.061.216.068.096.027.18.076.244.113.085.049.115.094.087.19-.012.022-.057.052-.133.037-.088.005-.185-.022-.294-.029-.193-.055-.432-.08-.726-.11-.273-.016-.56.044-.885.166-.382.175-.707.297-.952.38-.225.097-.559.186-.959.293a1.882 1.882 0 00-.349.165.389.389 0 00-.16.133.395.395 0 01-.17.1 1.059 1.059 0 01-.273-.017c-.303-.062-.512-.042-.69.024a2.309 2.309 0 00-.399.25.603.603 0 01-.194.14c-.046.031-.1.028-.176.012-.139-.052-.39-.056-.754-.012-.342.056-.74.109-1.17.17-.618.094-1.115.174-1.487.184a.534.534 0 01-.142.003c-.11-.007-.252-.004-.394-.002a2.233 2.233 0 00-.373.01.562.562 0 00-.245.084c-.3.08-.64.082-1.072.002a4.423 4.423 0 00-1.136-.036 4.236 4.236 0 01-.515.013c-.163-.01-.272-.016-.393-.002-.1.027-.18.066-.216.13l-.042-.025a.185.185 0 00-.097-.028.676.676 0 00-.202-.088.713.713 0 00-.215-.068c-.357-.065-.693-.118-.995-.18a15.168 15.168 0 01-2.097-.421c-.463-.126-.714-.13-.763-.046-.016.076.096.225.334.447.25.2.522.414.857.664.326.216.61.408.851.576.19.11.284.192.348.228a117.96 117.96 0 013.189 2.631 46.813 46.813 0 013.724 3.56c1.151 1.228 1.897 2.28 2.184 3.15.09.333.127.806.133 1.43-.002.59-.017 1.202-.087 1.81a5.632 5.632 0 01-.312 1.37c-.054-.003-.102-.115-.177-.327-.108-.204-.192-.45-.305-.74-.084-.246-.18-.47-.255-.683a3.302 3.302 0 00-.234-.474c-.267-.464-.59-.932-.92-1.433a18.454 18.454 0 01-.863-1.288 18.602 18.602 0 00-2.89-3.247c-.23-.189-.446-.398-.664-.608zm5.626 5.588c-.018-.066-.057-.145-.111-.148a.222.222 0 00-.185-.022c-.054-.004-.079.039-.082.093.009.033.06.091.166.152.106.061.172.043.212-.075zm-.854-.718c.182.076.248.059.234-.063-.015-.12-.093-.279-.234-.473a5.073 5.073 0 00-.476-.641 3.012 3.012 0 00-.452-.487c-.157-.118-.232-.134-.269-.07-.003.054.045.166.144.336.099.17.253.344.394.538.15.228.304.401.437.562.111.15.192.252.223.298zm-4.539-5.468c.302.259.522.414.628.475.106.061.118.04.067-.018-.04-.079-.142-.194-.286-.334a4.307 4.307 0 00-.486-.478c-.187-.164-.353-.316-.51-.435-.157-.119-.284-.192-.371-.186.009.033.06.09.141.194.081.103.217.21.34.338.116.094.24.222.333.304.072.07.123.128.144.14zM9.39 36.831c.154.173.26.234.326.216.076.016.113-.048.086-.148a.39.39 0 00-.105-.258.389.389 0 00-.312-.095c-.054-.003-.066.018-.078.039a.337.337 0 00.014.121.185.185 0 00.06.091c-.012.022.01.034.01.034zm-1.524-1.218c-.054-.004-.087.005-.066.017.009.034.03.046.093.083.043.024.106.06.16.064.064.037.118.04.173.043.021.012.054.003.045-.03 0 0-.03-.045-.135-.106-.085-.05-.17-.098-.27-.071zm11.29-.756c.033-.009.067-.017.109.007.076.015.13.019.227.046.181.077.42.102.638.115.482-.004 1.297-.097 2.433-.258a37.301 37.301 0 003.298-.634c1.067-.286 1.753-.595 2.036-.939-.396-.144-.823-.137-1.278-.033-.455.105-.934.25-1.416.451-.728.285-1.395.464-2.043.512a5.692 5.692 0 00-.628.061c-.275.038-.551.076-.893.132-.53.089-.961.15-1.325.194-.945.075-1.769.135-2.468.125-.69.025-1.52-.003-2.468-.071a1.227 1.227 0 00-.418.04c-.121.015-.221.042-.246.084-.024.042.006.088.124.128.097.028.324.074.638.115.055.003.11.006.185.022.566.045 1.165.08 1.798.108a5.013 5.013 0 001.697-.205zm3.367-3.243c.066-.018.188-.033.33-.035.13.019.251.004.372-.01.122-.015.18-.066.183-.12-.006-.089-.12-.183-.341-.338a.31.31 0 01-.115-.095l-.232-.134c-.051-.058-.094-.082-.115-.094-.03-.046-.072-.07-.102-.116-.06-.091-.214-.264-.504-.544a1.224 1.224 0 00-.42-.299 2.855 2.855 0 00-.483-.138 2.156 2.156 0 01-.48-.193c-.107-.061-.154-.173-.145-.337.05-.281-.003-.481-.148-.621a2.24 2.24 0 00-.601-.375c-.106-.061-.224-.101-.33-.162-.063-.037-.178-.131-.368-.241-.19-.11-.39-.253-.6-.375-.158-.12-.327-.217-.442-.311l-.211-.122c-.109-.007-.167.044-.186.174-.006.11.008.23.032.385.006.088.011.176.008.23.006.088-.028.097-.082.094a2.307 2.307 0 01-.302-.259c-.132-.161-.316-.38-.581-.702-.009-.033-.009-.033-.03-.046-.15-.227-.368-.437-.594-.68a1.269 1.269 0 00-.776-.364c.05.057.111.148.205.23.102.116.204.232.328.36.103.115.205.23.277.3.082.104.154.174.163.207.03.046-.003.055-.088.006-.097-.028-.245-.113-.486-.28-.504-.348-.914-.81-1.142-1.393-.117-.237-.237-.419-.336-.589-.112-.149-.226-.243-.28-.246a.339.339 0 01-.191-.11c-.064-.037-.103-.116-.12-.183a1.161 1.161 0 00-.359-.404c-.17-.098-.308-.15-.417-.156-.143.002-.188.032-.161.132-.007.11.16.262.418.496.136.106.25.2.353.316.094.082.154.174.15.228.01.034-.045.03-.15-.03-.094-.083-.263-.18-.429-.333a2.862 2.862 0 01-.398-.483 3.31 3.31 0 00-.376-.471.831.831 0 00-.423-.244c-.075-.016-.154.023-.224.096-.037.063-.098.169-.15.308-.064.16-.129.32-.239.51a2.194 2.194 0 01-.477.486c-.305.332-.509.637-.613.915-.064.16-.125.266-.195.338-.061.106-.161.133-.27.126-.143.002-.274.18-.402.5-.129.321-.249.675-.314 1.032-.077.378-.094.65-.037.796.027.1.054.2.056.343-.016.272.095.618.265 1.055.204.428.71.918 1.486 1.478l.635.366c2.031.779 3.947 1.123 5.746 1.034 1.778-.1 3.623-.416 5.458-.908zm-2.639-2.51a1.31 1.31 0 01-.616-.3 1.498 1.498 0 01-.364-.492c-.057-.145-.009-.23.113-.245.154-.023.399.09.788.343.127.073.242.168.335.25.115.094.142.194.127.27-.007.109-.14.145-.383.174zm-1.76-1.298c.037-.063.104-.081.167-.045.064.037.103.116.163.207.039.079.044.167.02.21-.024.041-.112.047-.239-.026a.264.264 0 01-.111-.149.393.393 0 010-.197zm-4.11-2.598c-.12-.182-.168-.295-.155-.316-.01-.033.066-.018.193.056.076.015.148.085.22.155.06.091.112.149.13.215.02.21.005.285-.071.27-.076-.016-.2-.143-.316-.38zm-3.08-1.355c.12-.157.147-.254.087-.345-.06-.091-.157-.12-.287-.138a.384.384 0 00-.345.11c-.104.082-.135.233-.081.433.027.1.078.158.166.152.075.016.154-.023.233-.062.091-.06.17-.1.228-.15zm11.49 5.59c-.554-.264-.865-.359-.935-.287-.07.073.03.243.276.498.247.256.582.506.993.771.402.232.828.421 1.227.511.206.034.315.04.31-.047-.019-.067-.079-.158-.223-.298-.124-.127-.302-.258-.468-.41-.2-.144-.356-.263-.504-.348-.136-.107-.22-.155-.22-.155l-.457-.236zm6.06 3.076c-.167.044-.228.15-.159.275.036.133.142.194.281.246.151.031.318-.014.482-.2.061-.106.065-.16-.02-.21-.072-.07-.169-.097-.3-.116a1.069 1.069 0 00-.284.005zm-11.456-6.135c-.123-.128-.208-.177-.232-.134-.033.009-.049.084-.022.184.027.1.066.18.16.261.093.083.19.11.332.108-.006-.088-.024-.155-.075-.212-.03-.046-.069-.125-.12-.183l-.043-.024zm19.86-18.332c-.676-.588-1.63-1.28-2.865-2.02-1.257-.754-2.3-1.243-3.14-1.447-.185-.022-.348-.032-.457-.038-.11-.007-.218-.013-.348-.032a3.034 3.034 0 01-.497-.117c-1.862-.681-3.775-.883-5.696-.583a6.55 6.55 0 00-.976.226l-.133.035c-.334.09-.698.134-1.125.14-.296.027-.572.065-.836.082-.276.038-.488.113-.625.203-.43.259-.904.493-1.42.702-.561.24-1.126.534-1.715.87-.26.16-.488.31-.738.449-.622.345-1.239.779-1.858 1.266-.07.073-.162.133-.286.202-.124.07-.225.096-.325.123-.1.027-.142.002-.139-.052-.017-.067.056-.194.187-.372.11-.19.183-.317.21-.414l.086-.148c.012-.021.079-.039.133-.036.067-.018.164.01.294.029.076.015.109.006.142-.003.034-.008.067-.017.08-.039l.036-.063c-.009-.033.015-.076.028-.097.024-.042.057-.051.124-.069a.922.922 0 01.23-.008c.055.003.137-.09.243-.226.135-.233.332-.428.61-.663.397-.25.792-.445 1.174-.619.382-.174.755-.381 1.162-.597 1.15-.577 2.221-.917 3.166-.992a9.253 9.253 0 001.94-.43c.346-.11.507-.243.514-.352-.015-.121-.097-.225-.299-.313a1.4 1.4 0 00-.602-.179.902.902 0 00-.293-.028c-.076-.016-.164-.01-.273-.017-.167.045-.258.105-.252.193-.015.076.011.176.08.3-.308-.15-.544-.23-.707-.24-.176.012-.288.06-.358.132a.408.408 0 00-.168.242c-.049.085-.085.148-.13.178-.046.03-.11-.006-.224-.1a2.22 2.22 0 01-.302-.26l-.063-.036.02.012a.532.532 0 00.07.124.439.439 0 01.02.21c.018.066-.019.13-.089.202a.97.97 0 01-.39.14 2.466 2.466 0 01-.658.016c-.151-.031-.29-.083-.366-.099-.042-.024-.085-.049-.097-.027-.021-.013-.033.009-.036.063.008.033.014.121.062.233l.009.034c.015.121.02.209-.025.239a.25.25 0 01-.188.032 4.013 4.013 0 01-.27-.07c-.075-.016-.172-.044-.247-.06-.055-.002-.11-.006-.134.037-.113.244-.22.38-.332.428a.63.63 0 01-.3.08.25.25 0 00-.188.033c-.067.018-.115.103-.134.233a.185.185 0 01-.091.06c-.046.03-.134.036-.2.053-.252-.004-.543.11-.904.296-.116.103-.198.196-.301.277a1.472 1.472 0 01-.359.329c-.103.081-.282.147-.449.192-.033.009-.067.018-.091.06l-.061.106a.586.586 0 01-.147.253c-.073.127-.23.205-.434.313-.203.108-.489.31-.86.66-.37.35-.733.732-1.098 1.17a8.683 8.683 0 00-.847 1.174c-.208.36-.245.62-.122.747.064.037.21-.02.37-.152.152-.166.338-.341.493-.561.177-.209.308-.387.402-.501l.05-.085c.094-.115.167-.241.219-.38a1.08 1.08 0 01.229-.348c.09-.06.22-.041.399.09.115.094.13.215.035.33-.107.136-.247.28-.408.413-.14.145-.255.247-.362.383-.213.272-.402.501-.554.667a5.792 5.792 0 00-.63.848c-.18.263-.391.677-.633 1.242-.334.822-.568 1.814-.68 2.934-.11 1.12.028 2.102.393 2.933.178.328.413.408.662.27.261-.16.526-.373.785-.675.152-.166.313-.299.453-.443.562-.437 1.394-1 2.509-1.71 1.135-.697 2.27-1.197 3.383-1.513 1.134-.304 2.008-.11 2.577.614l.03.045c.135.304.182.613.15.96-.052.337-.012.755.134 1.234.123.325.11.543-.027.633-.136.09-.349.165-.658.212-.142.002-.288.06-.442.083-.889.22-1.601.429-2.12.693-.52.264-1.133.643-1.886 1.166-.26.16-.464.268-.607.27-.066.018-.145.057-.212.075-.058.051-.094.115-.143.2-.003.054-.049.084-.061.105-.021-.012-.055-.003-.088.006-.042-.025-.076-.016-.109-.007-.067.018-.091.06-.137.09-.058.051-.085.148-.158.275-.04.118-.11.19-.256.247-.124.07-.258.105-.403.162a1.191 1.191 0 00-.628.258c-.14.144-.136.429.06.824.445.595 1.244 1.31 2.41 2.124a61.716 61.716 0 003.59 2.326 57.13 57.13 0 003.009 1.625c.223.1.532.25.903.437.562.296 1.145.605 1.753.87.607.267 1.07.393 1.376.4 2.076-.323 4.444-1.69 7.083-4.114 2.618-2.435 4.496-5.297 5.58-8.59 1.096-3.314.374-6.409-2.188-9.297zM21.8 2.837c.112-.048.179-.066.209-.02.03.045.027.1.011.175a.259.259 0 01-.119.157c-.045.03-.108-.007-.18-.077a.134.134 0 01-.003-.142c.024-.042.058-.051.082-.093zm13.53 25.346a16.077 16.077 0 01-1.578 1.316c-.423.292-.89.614-1.367.902-.319.21-.717.46-1.172.761-.377.262-.55.416-.457.498.073.07.282.05.615-.04.334-.09.67-.233 1.023-.453a15.965 15.965 0 001.837-1.278c.505-.386 1.04-.922 1.624-1.544.034-.009.046-.03.104-.08.103-.082.218-.185.346-.308.128-.124.201-.25.262-.356.061-.106.022-.185-.108-.204-.109-.006-.221.042-.37.153l-.447.334c-.127.124-.243.226-.313.299zM9.787 15.438c.085.049.14.052.164.01a.264.264 0 00.022-.185c-.027-.1-.045-.166-.087-.19-.051-.059-.097-.029-.134.035-.036.063-.06.106-.043.172.03.046.048.113.078.158zm.962-4.547c-.146.254-.287.595-.431.991-.144.396-.255.784-.353 1.15-.09.399-.152.701-.186.907-.034.206-.004.251.069.124.012-.02.076-.18.214-.468.138-.287.266-.607.41-1.003.165-.384.285-.738.405-1.092.129-.32.175-.547.172-.69-.002-.142-.102-.115-.3.081zm28.213 13.244c.076-.182.137-.287.129-.32-.01-.034-.043-.025-.113.047-.079.04-.16.133-.255.248l-.247.28c-.082.094-.119.157-.13.178-.034.01-.12.157-.275.377-.168.242-.38.514-.597.84-.217.326-.388.622-.568.884-.158.275-.235.457-.229.544.006.088.142-.002.419-.237.301-.277.587-.676.89-1.15l.756-1.31c-.009-.034.003-.055.016-.076l.085-.148a.476.476 0 00.119-.157zM9.753 10.568c.01-.163-.018-.263-.069-.32-.042-.025-.13-.02-.2.053-.079.039-.128.123-.155.22-.019.13.008.23.098.367.051.058.094.082.151.031.046-.03.083-.094.098-.17.037-.063.052-.138.076-.18zm1.191-2.356c.055-.194.083-.29.062-.303 0 0-.091.06-.219.184-.35.362-.405.555-.163.526.055.003.112-.048.182-.12.05-.085.098-.17.138-.287zm.911-1.335c-.04.118-.043.173-.034.206.01.034.042.025.067-.018.033-.009.07-.072.094-.114a.46.46 0 00.056-.194c.003-.054-.006-.088-.048-.112-.034.009-.034.009-.046.03l-.049.085-.036.063c-.013.021-.004.054-.004.054zm1.933-1.59c.295-.168.402-.304.362-.383-.005-.088-.135-.106-.323-.074-.21.02-.413.128-.607.27a1.136 1.136 0 00-.424.685c-.024.043-.049.085-.094.115-.067.018-.125.07-.192.087-.09.06-.17.1-.227.15-.037.064-.02.13.053.2s.173.044.276-.038c.115-.102.243-.226.383-.37.198-.196.383-.371.532-.483l.261-.159zm2.144-1.271a.534.534 0 00.34-.199c.128-.123.298-.222.535-.34.798-.356 1.199-.66 1.224-.9.025-.239-.26-.234-.82.006a12.4 12.4 0 00-.984.532c-.158.078-.295.168-.453.246-.012.021-.045.03-.045.03a2.588 2.588 0 00-.498.276c-.137.09-.264.214-.362.383-.012.022-.046.03-.079.04l-.1.026c-.067.018-.121.015-.188.033a.19.19 0 00-.14.144c-.049.085-.055.194-.032.348.012.176.096.225.242.168.137-.09.307-.19.513-.352a9.53 9.53 0 01.435-.313c.17-.1.282-.147.412-.128zm6.484-2.882c-.054-.003-.163-.01-.351.023-.197 0-.418.04-.66.07-.243.03-.464.07-.652.103-.21.02-.343.056-.397.053-.5.134-.946.271-1.35.433-.424.15-.694.275-.864.374-.17.1-.107.136.169.098.263-.017.818-.148 1.685-.38.034-.009.2-.054.455-.104.254-.05.534-.143.855-.211.312-.102.579-.173.825-.257.212-.075.315-.156.285-.202zm1.928 1.593c.184.219.362.35.501.402.151.03.272.016.321-.068.07-.073.077-.182-.014-.318-.069-.125-.259-.235-.546-.372-.194-.056-.303-.062-.34.001-.027.097 0 .197.078.355zm2.256.682c.076.016.121-.014.116-.102a.862.862 0 00-.123-.325 1.591 1.591 0 00-.262-.377c-.081-.103-.154-.173-.23-.188-.041-.025-.078.039-.055.193.024.155.08.3.192.45.124.127.226.243.362.35zm1.038-.528c-.015-.121-.096-.225-.21-.32-.127-.072-.245-.112-.363-.152-.13-.019-.197-.001-.234.062-.024.043.045.167.232.332.072.07.178.13.275.158.106.061.206.034.3-.08zm1.248.523c-.232-.134-.392-.198-.468-.214-.076-.015-.1.027-.061.106.039.079.111.149.193.252.114.094.208.177.301.259.073.07.148.085.182.076.079-.039.127-.123.08-.236-.027-.1-.12-.182-.227-.243zm1.33.627c-.067.018-.1.027-.079.039.01.033.03.045.094.082a.416.416 0 00.16.064c.063.037.118.04.172.044.034-.01.055.003.046-.03.012-.022-.051-.058-.124-.128a.492.492 0 00-.269-.071zM11.069 38.025c.09-.06.179-.066.318-.014a.95.95 0 01.341.141c.073.07.124.128.1.17-.016.076-.125.07-.364.044a.58.58 0 01-.29-.083.214.214 0 01-.105-.258zm24.85 2.564c.338.195.768.33 1.322.396 1.547-.093 2.954-.38 4.23-.883.796-.303 1.296-.437 1.438-.439-.126.463-.256.98-.367 1.564l-.028.097c-.12 1.086.143 1.999.83 2.762.79.146 1.847.023 3.13-.392.475-.092.94-.162 1.345-.181.56-.043 1.29-.185 2.203-.448.38-.12.65-.245.844-.387-.408-.123-.826-.082-1.254.122a2.07 2.07 0 01-1.052.21 6.679 6.679 0 00-1.227.025c-.43.062-.769.063-.987.05.14-.145.898-.384 2.241-.708 1.761-.364 2.792-.587 3.07-.68.289-.059.838-.277 1.702-.652.74-.306 1.147-.522 1.22-.649.025-.042.037-.063-.005-.088-.085-.048-.236-.08-.445-.06-.188.033-.418.041-.666-.017.24-.172.643-.334 1.223-.507a8.387 8.387 0 001.787-.8l-.021-.012c-.233-.135-.751-.067-1.534.214-.851.157-1.715.335-2.591.534a62.261 62.261 0 01-6.05 1.299c-.364.044-.624.006-.793-.092-.22-.155-.204-.427.037-.796l.13-.178a.836.836 0 00.42-.237.605.605 0 00.076-.181l.134-.233c.18-.263.445-.477.812-.575l.203-.108c.046-.03.049-.085.04-.118-.02-.209-.01-.372.084-.487.146-.254.498-.473 1.002-.662.258-.105.482-.2.631-.312a3.87 3.87 0 01.833-.563c.303-.134.497-.276.583-.424.106-.136.074-.324-.068-.518-.035-.133-.004-.285.081-.433.107-.136.226-.292.369-.492l-.127-.073c-.085-.049-.142-.194-.15-.424.033-.545-.14-.928-.521-1.147-.19-.11-.409-.123-.684-.085-.255.05-1.372.617-3.327 1.66a83.36 83.36 0 01-1.794.909l-.385.228c-1.694.883-3.183 1.461-4.435 1.725-1.076.253-1.8.286-2.16.078-.22-.155-.182-.416.07-.805.376-.601 1.267-1.412 2.673-2.432.951-.72 1.862-1.321 2.688-1.775.917-.513 1.418-.844 1.491-.971.037-.063.02-.13-.074-.212-.085-.05-.245-.113-.426-.19.064-.16.14-.342.247-.477a2.468 2.468 0 00-.13-.555c-.24-.561-.502-.938-.756-1.085-.212-.122-.517-.129-.905-.043-1.172.564-2.612 1.593-4.308 3.067-1 .804-1.83 1.705-2.447 2.675-.926 1.41-.968 3.19-.081 5.365.117.237.334.447.609.606zm1.959-.56c-.085-.05-.115-.095-.078-.159a.282.282 0 01.19-.087c.249.059.667.018 1.243-.1.618-.094.948-.13 1.012-.093-.037.064-.47.18-1.292.382-.618.094-.97.117-1.075.056zm2.788-.534l-.021-.012.027-.096c.025-.043.125-.07.28-.093l.012-.021.02.012c.259-.105.413-.128.456-.104-.013.021-.058.051-.104.081-.079.04-.145.057-.224.096-.1.027-.246.084-.446.138zm10.928 10.37c.063.036.254.146.583.308.33.162 1.038.204 2.134.16.494-.024 1.242-.1 2.224-.238a8.782 8.782 0 001.385-.3c.325-.122.558-.185.713-.208.142-.003.33-.035.551-.077.13.02.53-.088 1.256-.318.245-.084.39-.14.427-.204-.03-.045-.172-.043-.393-.002a41.561 41.561 0 01-7.176.368c-.02-.012-.054-.003-.109-.006a1.683 1.683 0 01-.206-.035c-.054-.003-.13-.018-.16-.064-.042-.024-.051-.058-.014-.121.14-.145.419-.237.912-.263 1.012-.092 1.7-.062 2.083.104.227.046.49.029.803-.073.167-.044.3-.08.43-.061 2.736-.197 5.49-.72 8.32-1.568 1.104-.35 1.698-.598 1.784-.746-.043-.025-.606.073-1.658.283l-.797.16c.17-.1 1.277-.503 3.309-1.19.758-.24 1.174-.422 1.223-.507.012-.02.012-.02-.01-.033-.084-.049-.781.084-2.115.442a43.977 43.977 0 01-7.94 1.448c-1.44.1-2.817.094-4.14-.106-.726-.11-1.337-.321-1.79-.61a2.025 2.025 0 01-.747-.855l-.069-.124c-.108-.204-.11-.346-.061-.43.024-.043.082-.094.152-.167a.814.814 0 00.246-.28c.074-.127.138-.287.178-.405.073-.127.113-.245.174-.35.11-.19.255-.248.391-.141l.094.082a.052.052 0 00.066-.018s.025-.042.028-.097c.003-.054.028-.096.031-.15.003-.055.028-.098.052-.14.305-.529.6-.697.883-.505l.314.238c.505.347 1.346.55 2.478.64.218.014.602-.018 1.142-.073 1.133-.107 1.79-.122 1.938-.037l-.012.021c-.135.233-.756.382-1.877.468a17.61 17.61 0 01-2.138.09 3.01 3.01 0 00-.648-.148l-.109-.007a.562.562 0 00-.227-.046c-.096-.028-.163-.01-.187.032-.013.021.005.088.078.158.132.161.21.319.17.437-.006.109.02.209.147.282.064.037.17.098.309.15.998.322 2.433.277 4.23-.15.977-.227 1.627-.669 2.005-1.324.061-.106.065-.16.001-.197-.042-.025-.197-.001-.485.058-.345.11-.554.13-.606.073l-.072-.07c.107-.136.301-.277.571-.403.35-.165.556-.328.641-.476.073-.127.08-.235.002-.393-.102-.116-.093-.28.03-.49.067-.215.189-.427.323-.66.056-.193.039-.456-.105-.793-.231-.528-.61-.945-1.073-1.268-.893-.6-1.858-.932-2.905-.973-1.778.101-3.495.633-5.15 1.594a10.423 10.423 0 00-2.933 2.592c-.177.208-.299.42-.42.63a5.518 5.518 0 00-.365.777c-.128.32-.154.757-.124 1.338.029.44.03.779-.01 1.093-.03.294-.003.59.023.888.047.309.212.658.47 1.089.535.929 1.044 1.561 1.527 1.896zm4.657-8.165c-.135-.107-.195-.198-.134-.304.036-.063.14-.144.285-.201.395-.195.895-.33 1.5-.402.85-.103 1.5-.009 1.92.29.232.134.298.313.2.482-.183.317-.665.518-1.49.578-1.008.038-1.776-.096-2.28-.443zm-2.228 1.955c.263.18.486.28.671.303.185.022.285-.005.31-.047.048-.085-.024-.155-.16-.261a4.357 4.357 0 00-.456-.236c-.097-.027-.197 0-.306-.007-.121.015-.18.066-.204.108-.012.021.018.067.145.14zm6.909 12.643c.958.44 2.047.703 3.279.766.72.022 1.148.014 1.293-.043a.49.49 0 01.343-.056c.15.031.414.014.802-.072 0 0 .013-.02.034-.009.454-.104.721-.175.821-.202.346-.11.717-.46 1.122-1.016l.318-.55c.546-1.093.542-2.11-.002-3.073a12.733 12.733 0 00-1.568-2.117c-.021-.013-.042-.025-.051-.058 0 0-.154-.174-.431-.475-.504-.544-.702-.884-.595-1.02.024-.042.09-.06.179-.066.075.016.154-.023.215-.129 1.797-.964 3.457-1.105 5.023-.398.486.28.881.621 1.164 1.01.18.274.356.46.537.536.202.088.393.001.607-.27.621-.882.928-1.804.945-2.81.012-.753-.321-1.397-1-1.93l-.063-.036c-1.224-.566-2.626-.727-4.226-.495-1.587.211-3.055.605-4.402 1.18-.334.286-.556.524-.712.745-.405.555-.744 1.29-.997 2.215-.086.345-.145.593-.146.79-.013.218.143.533.465 1.001.638 1.045 1.189 1.701 1.608 2 .118.04.25.2.377.471.071.267.192.449.349.568.148.085.235.276.243.507a.545.545 0 01-.059.248c-.094.114-.352.22-.804.269-.927.14-1.932.124-3.015-.05-.621-.048-1.277-.23-1.97-.545-.692-.315-1.231-.796-1.568-1.385l-.254-.682a.187.187 0 01-.082-.104c-.053-.2-.135-.303-.177-.327-.042-.025-.133.035-.219.183-.43.795-.485 1.524-.164 2.189.49.96 1.234 1.671 2.256 2.148 1.033.456 2.277.694 3.773.74 1.002.072 1.546.104 1.631.153.042.025.051.058.04.08-.083.093-.283.146-.613.181-.694.079-1.142.074-1.312-.024-.239-.025-.381-.023-.481.004-.264.017-.848-.095-1.764-.314-.442-.114-.732-.197-.859-.27l-.45-.147c-.527-.163-.808-.213-.82-.192-.037.064.192.252.712.524.211.122.444.257.668.357zm12.23-9.317c-.434-.42-.736-.679-.96-.78-.202-.089-.644-.203-1.303-.33l-.484-.138c.182-.12.63-.115 1.314-.03.26.037.475.104.699.205.266.126.507.293.724.503.217.21.283.39.234.474-.057.05-.124.069-.224.096zm-2.928 20.89c.19.11.396.145.651.094-.335-1.519-.33-2.7-.026-3.567.109-.726.296-1.295.507-1.709.21-.414.37-.689.455-.837.403-.697 1.015-1.612 1.817-2.756l.073-.127c.042.024.097.027.163.01.067-.018.125-.07.174-.154a.797.797 0 00-.02-.406c-.039-.079-.056-.146-.032-.188.012-.021.046-.03.058-.051a.652.652 0 00.29.083c.251.004.598-.303 1.04-.922.07-.072.13-.178.216-.326.016-.076.007-.11-.014-.121-.318.013-.46.016-.482.004-.021-.013.003-.055.04-.118.061-.106.198-.196.41-.271.112-.048.212-.075.288-.06.185.023.273.017.306.008.012-.021.152-.166.432-.455.228-.15.389-.283.517-.407.127-.123.23-.205.288-.256.058-.051.12-.157.18-.262-.009-.034-.039-.08-.078-.158-.051-.058-.032-.188.078-.378.097-.17.188-.23.273-.181a.393.393 0 01.154.173c.038.08.069.125.09.137.009.033.009.033.03.045.088-.005.179-.065.252-.192a.187.187 0 00.019-.13c.085-.148.155-.22.198-.196l.398.286.067-.018c-.027-.1-.126-.27-.28-.443-.154-.173-.223-.298-.195-.395.06-.105.143-.199.225-.292a.823.823 0 01.231-.205c.058-.051.113-.048.134-.036.042.024.027.1-.026.24-.088.202-.086.344-.022.38.314.041.576-.118.77-.456.135-.233.148-.45.031-.688l.012-.02.021.012c.402.232.775.221 1.13-.053.24-.172.462-.41.684-.648.302-.277.566-.491.781-.62a.753.753 0 00.177-.209.713.713 0 00.068-.214c-.006-.088.362-.383 1.148-.916l.013-.02c.036-.064.103-.082.224-.097.294.029.482-.004.53-.088l-.017-.067c.012-.021.057-.051.157-.078.246-.084.404-.162.453-.246l.004-.252.06-.105c.995.377 1.56.618 1.709.704.49.226.813.3 1.004.213.17-.099.291-.114.355-.077l.014.121c-.01.164.026.297.162.404.19.11.372.186.577.22.956.298 2.18.864 3.681 1.73.39.254.834.51 1.278.767.839.597 1.403 1.035 1.693 1.315.256.29.563.636.88 1.016.255.288.41.462.515.523.084.049.163.01.249-.139.076-.18.04-.314-.062-.43l-.147-.282c.024-.042.07-.072.145-.057.076.016.122-.014.158-.078-.035-.866-.25-1.47-.658-1.79-.272-.213-.383-.362-.355-.458.012-.022.045-.03.1-.027.054.003.118.04.236.08.097.027.181.076.245.113.063.036.105.06.16.064-.281-.782-1.513-1.775-3.703-3.011-2.19-1.236-3.963-2.12-5.341-2.662.24-.171.637-.42 1.205-.77.705-.439 1.306-.796 1.813-1.04.527-.23.859-.462 1.017-.737.073-.127.041-.314-.088-.53-.198-.34-.224-.637-.12-.915l.24-.368c.058-.052.107-.136.168-.242.138-.287.07-.608-.159-.994-.243-.507-.517-.862-.834-1.045-.465-.269-.987-.147-1.585.353a11.52 11.52 0 01-1.015.683l-3.108 2.209c-.83.705-1.437 1.171-1.81 1.379-.34.001-1.79-.611-4.37-1.903-1.859-.932-2.944-1.446-3.243-1.562a17.77 17.77 0 01-1.318-.648l-.241-.168-.287-.137c-.034.009-.076-.016-.118-.04-.36-.208-.586-.254-.66-.127l-.012.02c-.15.506.277 1.035 1.27 1.608.614.355 1.055.665 1.293.887.072.07.124.128.187.165.507.49.754.745.73.787-.324-.074-.509-.096-.546-.032.003.142.093.279.229.385l1.1.635.03.046c-.022-.013-.076-.016-.206-.035-.13-.018-.218-.013-.243.03-.012.02-.015.075.015.12.101.313.497.654 1.173 1.045l2.678 1.123a2.027 2.027 0 00-.383.37l-3.103 2.494a45.094 45.094 0 00-6.123 6.163 27.95 27.95 0 00-1.278 1.968c-.671 1.163-1.118 2.23-1.34 3.201-.743 2.165-.636 4.031.31 5.564.275.356.522.611.712.721zm2.387-8.968c-.021-.012.007-.109.071-.269.037-.063.082-.093.103-.081.03.045.003.142-.058.248-.05.084-.073.127-.116.102zm.664-.857l.098-.169c.207-.36.372-.546.523-.515.021.012.009.033-.016.075l-.332.429c-.16.132-.252.193-.273.18zm1.467-1.662s-.009-.033.016-.075c.253-.39.478-.683.71-.887.23-.205.367-.296.43-.259l.01.033c-.05.085-.202.25-.436.51-.033.01-.067.018-.103.081-.037.064-.095.115-.177.209-.103.08-.173.153-.243.226-.082.093-.14.144-.174.153l-.033.01zm4.66-4.555c-.022-.012-.01-.033.003-.054.049-.085.152-.166.319-.21.067-.019.121-.015.142-.003.01.033-.003.054-.015.076-.037.063-.095.114-.207.162-.112.048-.179.066-.242.03zm1.173.311c-.084-.048-.136-.106-.099-.17.082-.093.149-.111.212-.074.085.048.115.094.066.179-.024.042-.07.072-.179.065zm9.302-1.902a1.31 1.31 0 01-.353-.317c.061-.105.415.014 1.028.368.254.147.356.262.32.326-.049.084-.37-.044-.995-.377zm1.994 1.038l-.105-.06a.46.46 0 01-.145-.14c.024-.043.079-.04.163.009a.557.557 0 01.196.198l-.109-.007zm4.052 2.65c-.042-.025-.063-.037-.039-.08.025-.041.058-.05.125-.068a.242.242 0 01.097.028c.084.048.135.106.099.17-.037.063-.134.035-.282-.05zm-.832-.707c-.486-.28-1.275-.82-2.355-1.585.535.197.991.432 1.435.688 1.015.586 1.486.942 1.434 1.081-.025.043-.185-.021-.514-.184zm-6.514 2.103c.486.281 1.213.194 2.16-.275.303-.135.595-.248.84-.332.355-.077.583-.228.693-.418.04-.118.08-.236.102-.42.021-.185.061-.303.098-.366.028-.097.073-.127.094-.115 0 0 .034-.009.055.003.021.012.054.004.054.004.022.012.013-.022.025-.043.068-.411-.136-.84-.579-1.292-.38-.417-.745-.712-1.104-.92-.496-.117-1.039-.007-1.628.33-.589.336-.969.652-1.185.978-.183.317-.314.495-.33.57-.235.457-.273.914-.103 1.351.247.452.512.774.808.945zm-11.197 5.77c-.115-.094-.126-.27-.016-.46.13-.178.255-.247.382-.173.127.073.142.194.044.363-.125.266-.262.356-.41.27zm-.087 3.813c.38.22.828.421 1.409.588l.278.104c.303.062.475.105.53.108a.294.294 0 00.166-.044c.08-.04.18-.066.346-.111.558-.185 1.385-.3 2.46-.355.636-.028 1.112-.12 1.428-.276.416-.183.643-.333.717-.46.012-.021.003-.054-.018-.067-.085-.048-.382-.022-.879.057-1.194.213-2.323.265-3.368.17-1.501-.134-2.358-.262-2.59-.396-.021-.013-.021-.013-.01-.034.037-.063.543-.11 1.473-.108 2.583-.031 4.858-.212 6.807-.609 2.341-.734 4.332-1.643 5.947-2.684.374-.207.568-.348.642-.475a.184.184 0 00-.02-.21 1.065 1.065 0 01-.075-.212l.364-.24c.522-.319.808-.52.844-.584.013-.021.013-.021-.008-.033-.022-.012-.143.002-.33.035-3.31 1.387-5.767 2.224-7.383 2.532-1.624.274-3.169.313-4.655.103l-.105-.061c-.17-.098-.205-.231-.129-.412.22-.381 1.059-1.053 2.559-1.99.683-.452 1.242-.834 1.656-1.16.343-.252.683-.45 1.029-.56.558-.186.9-.439 1.038-.726.16-.275.11-.726-.124-1.397-.285-.53-.613-.89-.973-1.097-.676-.39-1.482-.264-2.418.38-.137.09-.294.168-.473.234-.192.087-.328.177-.453.246a26.163 26.163 0 00-5.407 4.63 8.232 8.232 0 00-1.125 1.607c-.794 1.57-.503 2.726.85 3.507zm.89-4.814c-.063-.037-.06-.091-.065-.179a.711.711 0 01.068-.215l.049-.084c.13-.178.258-.302.44-.422.15-.112.298-.223.414-.325.094-.115.255-.248.495-.42.231-.204.471-.376.745-.556.24-.172.434-.313.58-.37.157-.078.303-.135.415-.183.134-.036.24-.171.362-.383l.077-.181c.089-.203.162-.33.22-.38.036-.064.264-.215.68-.397.349-.165.576-.316.67-.43.214-.272.387-.426.533-.483a.93.93 0 01.3-.08c.121-.015.246-.084.416-.183.24-.172.537-.197.903-.099l.096.028c.127.073.154.173.093.279-.028.097-.173.154-.416.183-.263.017-.439.028-.581.03-.143.003-.255.05-.304.135-.036.064-.218.184-.5.331l-.432.259-.342.056a.77.77 0 00-.48.343c-.037.063-.086.148-.177.208-.082.093-.164.187-.27.323-.108.136-.223.238-.338.34a.507.507 0 00-.253.193c-.027.097-.11.19-.225.293l-.474.43c-.15.112-.32.211-.502.332-.373.207-.588.336-.646.387-.07.073-.25.139-.55.22-.12.014-.224.095-.288.255l-.475.628c-.116.102-.195.141-.237.117zm10.865-7.343c-.03-.046-.039-.08-.002-.143.061-.106.326-.32.815-.63.406-.215.652-.3.715-.262.043.024.052.057.015.12-.061.107-.28.29-.611.522-.565.294-.868.43-.931.393zm3.48 17.851c.063.037.13.019.178-.066.049-.084.031-.15-.032-.188-.085-.048-.152-.03-.213.075-.049.085-.018.13.066.18zm-5.644.35c.203.09.535.197 1.022.28.466.072.924.11 1.35.104.44-.029.719-.121.829-.312.073-.127.23-.204.506-.243.255-.05.397-.052.46-.016.022.012.022.012.01.034-.025.042-.104.08-.261.159-.246.084-.37.153-.383.174-.012.021-.012.021.01.033.063.037.305.008.73-.142.324-.123.494-.222.53-.285.013-.021.013-.021-.008-.034l-.181-.076c-.064-.037-.073-.07-.048-.112.06-.106.34-.199.861-.32a5.852 5.852 0 001.523-.587c.41-.271.668-.376.743-.36.064.036.143-.003.216-.13.073-.126.152-.165.249-.138.084.049.242-.029.473-.234.152-.166.256-.247.32-.21.041.024.068.124.037.275.07.125.205.231.438.366.402.231 1.042.489 1.913.738.505.15.883.228 1.123.253a9.476 9.476 0 002.415-.325l.175-.011-1.38-.149c-.9.044-1.774-.15-2.605-.517-.335-.25-.48-.39-.455-.432.036-.064.221-.042.587.057.333.107.517.13.538.141.635.17 1.298.242 2.01.23 1.402-.036 2.135-.035 2.181-.066.033-.008.121-.014.263-.016.736-.055 1.133-.108 1.158-.15-.064-.036-.379-.077-.902-.098-.863-.019-1.396-.073-1.544-.158.66-.07 1.242-.1 1.711-.083.491.03.875-.002 1.154-.095.246-.084.458-.158.592-.194a3.059 3.059 0 001.056-.462c-.662-.27-1.132-.286-1.393-.127-1.332-.036-2.349-.032-3.049-.041a12.045 12.045 0 01-2.27-.267c-.1.026-.315-.041-.632-.224-.232-.135-.31-.292-.188-.504.18-.263.314-.495.445-.673a6.62 6.62 0 00.375-.601c.223-.435.343-.789.396-1.125-.027-.1.025-.239.123-.408.238-.51.255-.98.027-1.366-.112-.149-.238-.419-.39-.789-.264-.519-.496-.85-.729-.984-.084-.049-.236-.08-.433-.08a.778.778 0 01-.432-.081c-.148-.086-.293-.226-.477-.445a3.268 3.268 0 00-.853-.718c-.804-.464-1.848-.56-3.1-.296-1.058.32-2.327 1.053-3.874 2.218-1.89 1.418-3.216 2.738-3.987 3.928-.782 1.353-.876 2.737-.303 4.138.36.744.778 1.24 1.286 1.532l.042.025zm.728-3.018l-.021-.013c-.148-.085-.147-.282.036-.599.061-.106.143-.2.213-.272.07-.072.186-.174.359-.328a53.659 53.659 0 012.35-2.167c.578-.512.921-.765 1.052-.746.12-.015.224-.096.31-.244.085-.148.267-.268.546-.361.258-.105.574-.261.905-.493.33-.231.577-.315.77-.26.181.077.424.048.724-.033.3-.08.51-.1.615-.04.085.05.066.18-.056.39l-.07.073c-.15.309-.249.675-.35 1.095-.102.42-.134.768-.096 1.044.03.243.007.427-.066.554-.131.178-.553.47-1.251.8-.71.351-1.484.666-2.345.986-.862.32-1.562.508-2.16.614-.739.109-1.232.134-1.465 0zm.246 2.65c-.17-.097-.23-.188-.193-.252.085-.148.395-.195.952-.183.678-.003 1.563-.169 2.676-.485a22.051 22.051 0 003.17-1.243c.598-.303.922-.425.986-.389.063.037.069.125.008.23-.073.127-.165.187-.295.169-.033.008-.44.225-1.153.63-.735.394-1.587.747-2.546 1.04-1.349.433-2.422.631-3.194.552-.197-.001-.348-.032-.411-.069zm9.826-4.616c.036-.064.11-.19.216-.326.119-.157.247-.28.374-.404a.725.725 0 01.307-.19c.03.046.006.088-.043.172-.098.17-.353.417-.797.697l-.057.05zm.879.48c-.051-.059-.036-.134.013-.219l.106-.136c.104-.081.17-.099.213-.074.03.045.014.12-.071.269-.073.127-.164.187-.261.16zm.61-.861c-.073-.07-.103-.116-.067-.18.05-.084.107-.135.17-.098.043.024.073.07.06.09a.185.185 0 01-.027.097c-.049.085-.094.115-.137.09zm5.401 3.485l.297-.026c.885-.166 1.589-.408 2.114-.78-.181-.077-.39-.057-.648.048-.237.117-.47.18-.691.22a3.004 3.004 0 00-.783.282c-.17.1-.294.168-.319.21-.012.022.009.034.03.046zm-1.072.734l.251.004c.013-.02.034-.009.034-.009l.012-.02c.021.011.033-.01.045-.03-.202-.09-.311-.096-.372.01-.012.02.009.033.03.045zm3.034-1.885c.105.061.205.034.266-.072.004-.054-.026-.1-.078-.157-.121.014-.188.032-.212.074-.037.064-.04.118-.019.13l.043.025zm-4.26 1.713c.148.086.236.08.261.038.012-.022-.03-.046-.094-.082-.172-.044-.248-.06-.26-.038-.012.021-.003.054.018.067l.075.015zm3.746 11.043c.148.085.526.162 1.155.244l.248.059c1.108.132 2.217.067 3.302-.152.166-.045.297-.026.381.023.106.06.26.037.464-.071.224-.096.458-.158.688-.166a13.448 13.448 0 002.44-.565c1.125-.337 1.695-.544 1.756-.65-.126-.073-.666-.017-1.672.163-2.291.453-3.946.682-4.942.699l-.924.086c-.021-.012-.042-.024-.076-.015-.706.1-1.238.046-1.568-.116-.084-.049-.136-.107-.141-.195.112-.048.421-.095.927-.14.176-.012.351-.023.548-.023 1.615-.11 2.639-.224 3.081-.307a16.586 16.586 0 001.858-.337l.309-.047c1.398-.32 2.577-.655 3.551-1.023.258-.105.546-.164.846-.244.685-.112 1.134-.304 1.41-.54.122-.21.141-.34.111-.386-.03-.046-.06-.091-.048-.112.012-.022.125-.07.303-.135a12.07 12.07 0 002.459-1.231 5.702 5.702 0 00-1.842.064 67.92 67.92 0 00-2.607.61c-3.568.956-6.462 1.427-8.694 1.436a.561.561 0 01-.227-.047c-.127-.073-.105-.258.054-.532.208-.36.837-1.011 1.935-1.984l.787-.73c.335-.286.657-.551.979-.816.723-.57 1.161-.937 1.259-1.106.073-.127.107-.333.123-.605l.084-.487c.127-.463.125-.802.05-1.014l-.039-.08c-.072-.07-.099-.17-.101-.312-.011-.372-.281-.782-.773-1.15-.723-.361-2.444-.115-5.13.73-.692.222-1.092.329-1.256.319a1.71 1.71 0 01-.26-.038c-.151-.03-.293-.028-.384.032-.101.027-.167.045-.188.032l.012-.02c.036-.064.301-.278.817-.684l.128-.124c.435-.313.678-.54.739-.645.11-.19.051-.478-.181-.81-.112-.148-.202-.285-.238-.418-.277-.837-.512-1.31-.714-1.4-.233-.134-.682.058-1.347.576-.501.331-1.225.9-2.167 1.653-.905.69-2.285 1.81-4.193 3.358-1.165.99-1.84 1.672-2.048 2.032-.11.19-.131.375-.048.62a.964.964 0 01-.039.654c-.116.3-.117.496 0 .536.064.037.194.055.403.035.21-.02.318-.013.382.023.02.012.039.08.023.155-.146.253.046.506.533.786a6.584 6.584 0 003.41-.878l.698-.33c-1.416.451-2.141.681-2.204.645-.021-.013-.009-.034.003-.055.073-.127 1.408-.681 4.026-1.65.325-.123 1.037-.332 2.138-.627l2.395-.731c.379-.12.622-.149.718-.121.064.036.061.09.012.175-.049.085-.177.209-.362.384l-.265.213a19.21 19.21 0 00-3.417 3.722l-.216.326c-.208.36-.261.695-.189.962a1.74 1.74 0 01-.052.675c-.057.587.225 1.173.88 1.748l.127.074zm-6.565-5.623c-.009-.033-.018-.067.007-.109.097-.169.404-.358.929-.535l.661-.266c1.811-.646 3.53-1.232 5.092-1.74 2.745-.896 4.3-1.295 4.657-1.23.021.012-.003.055-.04.118-.213.272-.741.502-1.584.692-.6.161-2.404.698-5.394 1.678-.337.144-1.666.59-3.94 1.306l-.179.066c-.1.027-.167.045-.209.02zm17.13 2.899l-.063-.037c-.043-.024-.039-.079.022-.184l.024-.043c.012-.02.033-.009.076.016.063.036.081.103.032.188-.037.063-.07.072-.091.06zm.221-.042l-.054-.003c-.043-.024-.027-.1.034-.206.037-.063.082-.093.124-.069.064.037.061.091.024.155-.082.093-.107.136-.128.123zm.37-.152l-.042-.025s-.009-.033.007-.109c.061-.106.118-.157.182-.12.051.058.069.124.02.209-.012.021-.045.03-.091.06-.033.009-.054-.003-.076-.015zm.783-.281c-.042-.025-.042-.025-.03-.046a.423.423 0 01.149-.112l.333-.089c.2-.053.321-.068.43-.061.022.012.043.024.031.045l-.025.042c-.237.117-.428.204-.603.216-.155.023-.264.017-.285.005z" fill="#725A1A"/></svg>